<svg width="526" height="526" viewBox="0 0 526 526" fill="none" xmlns="http://www.w3.org/2000/svg">
<g clip-path="url(#clip0_5_11)">
<path d="M353.679 333.845C356.667 330.034 359.461 325.924 362.141 321.375C364.741 316.963 367.064 312.39 368.812 307.848L409.629 302.557C413.247 302.09 416.13 298.774 416.238 295.123L416.739 233.762C416.872 229.755 413.994 226.759 410.393 225.937L369.649 219.757C365.843 210.458 361.137 201.741 354.953 193.641L370.622 155.703C372.02 152.07 370.644 148.102 367.336 146.152L314.402 114.961C311.094 113.011 307.094 113.812 304.593 116.795L278.999 148.884C268.916 147.4 258.792 147.563 249.032 148.683L223.884 116.036C221.501 113.146 217.405 112.219 213.964 114.276L160.668 144.528C157.308 146.448 155.747 150.357 157.367 153.911L172.516 192.18C169.39 195.91 166.158 200.134 163.64 204.407C161.122 208.68 158.717 213.392 156.97 217.933L116.153 223.224C112.534 223.692 109.652 227.008 109.544 230.658L109.043 292.019C108.91 296.027 111.788 299.022 115.389 299.844L156.132 306.024C159.938 315.324 164.645 324.04 170.828 332.141L155.159 370.078C153.899 373.793 155.137 377.68 158.445 379.629L211.379 410.821C214.687 412.77 218.825 412.051 221.188 408.986L246.783 376.897C256.865 378.381 266.908 378.356 276.749 377.098L301.897 409.745C304.28 412.635 308.376 413.563 311.817 411.505L365.252 381.335C368.693 379.277 370.034 375.425 368.552 371.952L353.679 333.845ZM233.649 312.516C206.355 296.433 197.182 260.943 213.265 233.649C229.348 206.355 264.839 197.182 292.133 213.265C319.427 229.348 328.599 264.839 312.516 292.133C296.433 319.427 260.943 328.599 233.649 312.516Z" fill="url(#paint0_linear_5_11)"/>
</g>
<defs>
<linearGradient id="paint0_linear_5_11" x1="340.869" y1="130.557" x2="184.912" y2="395.225" gradientUnits="userSpaceOnUse">
<stop stop-color="#0015FF"/>
<stop offset="1" stop-color="#9E00FF"/>
</linearGradient>
<clipPath id="clip0_5_11">
<rect width="384" height="384" fill="white" transform="translate(194.946) rotate(30.5089)"/>
</clipPath>
</defs>
</svg>
