<svg width="1711" height="308" viewBox="0 0 1711 308" fill="none" xmlns="http://www.w3.org/2000/svg">
<path d="M377.906 236V75H447.596C462.009 75 474.429 77.3767 484.856 82.13C495.283 86.73 503.333 93.4 509.006 102.14C514.679 110.88 517.516 121.307 517.516 133.42C517.516 145.38 514.679 155.73 509.006 164.47C503.333 173.057 495.283 179.65 484.856 184.25C474.429 188.85 462.009 191.15 447.596 191.15H398.606L415.166 174.82V236H377.906ZM480.256 236L440.006 177.58H479.796L520.506 236H480.256ZM415.166 178.96L398.606 161.48H445.526C457.026 161.48 465.613 159.027 471.286 154.12C476.959 149.06 479.796 142.16 479.796 133.42C479.796 124.527 476.959 117.627 471.286 112.72C465.613 107.813 457.026 105.36 445.526 105.36H398.606L415.166 87.65V178.96ZM603.387 237.84C590.2 237.84 578.47 235.08 568.197 229.56C558.077 224.04 550.027 216.527 544.047 207.02C538.22 197.36 535.307 186.397 535.307 174.13C535.307 161.71 538.22 150.747 544.047 141.24C550.027 131.58 558.077 124.067 568.197 118.7C578.47 113.18 590.2 110.42 603.387 110.42C616.42 110.42 628.074 113.18 638.347 118.7C648.62 124.067 656.67 131.503 662.497 141.01C668.324 150.517 671.237 161.557 671.237 174.13C671.237 186.397 668.324 197.36 662.497 207.02C656.67 216.527 648.62 224.04 638.347 229.56C628.074 235.08 616.42 237.84 603.387 237.84ZM603.387 208.4C609.367 208.4 614.734 207.02 619.487 204.26C624.24 201.5 627.997 197.59 630.757 192.53C633.517 187.317 634.897 181.183 634.897 174.13C634.897 166.923 633.517 160.79 630.757 155.73C627.997 150.67 624.24 146.76 619.487 144C614.734 141.24 609.367 139.86 603.387 139.86C597.407 139.86 592.04 141.24 587.287 144C582.534 146.76 578.7 150.67 575.787 155.73C573.027 160.79 571.647 166.923 571.647 174.13C571.647 181.183 573.027 187.317 575.787 192.53C578.7 197.59 582.534 201.5 587.287 204.26C592.04 207.02 597.407 208.4 603.387 208.4ZM768.36 237.84C757.473 237.84 748.12 235.54 740.3 230.94C732.48 226.34 726.5 219.363 722.36 210.01C718.22 200.503 716.15 188.543 716.15 174.13C716.15 159.563 718.296 147.603 722.59 138.25C727.036 128.897 733.17 121.92 740.99 117.32C748.81 112.72 757.933 110.42 768.36 110.42C780.013 110.42 790.44 113.027 799.64 118.24C808.993 123.453 816.353 130.813 821.72 140.32C827.24 149.827 830 161.097 830 174.13C830 187.01 827.24 198.203 821.72 207.71C816.353 217.217 808.993 224.653 799.64 230.02C790.44 235.233 780.013 237.84 768.36 237.84ZM695.22 236V65.34H731.1V137.33L728.8 173.9L729.49 210.7V236H695.22ZM762.15 208.4C768.13 208.4 773.42 207.02 778.02 204.26C782.773 201.5 786.53 197.59 789.29 192.53C792.203 187.317 793.66 181.183 793.66 174.13C793.66 166.923 792.203 160.79 789.29 155.73C786.53 150.67 782.773 146.76 778.02 144C773.42 141.24 768.13 139.86 762.15 139.86C756.17 139.86 750.803 141.24 746.05 144C741.296 146.76 737.54 150.67 734.78 155.73C732.02 160.79 730.64 166.923 730.64 174.13C730.64 181.183 732.02 187.317 734.78 192.53C737.54 197.59 741.296 201.5 746.05 204.26C750.803 207.02 756.17 208.4 762.15 208.4ZM912.899 237.84C899.712 237.84 887.982 235.08 877.709 229.56C867.589 224.04 859.539 216.527 853.559 207.02C847.732 197.36 844.819 186.397 844.819 174.13C844.819 161.71 847.732 150.747 853.559 141.24C859.539 131.58 867.589 124.067 877.709 118.7C887.982 113.18 899.712 110.42 912.899 110.42C925.932 110.42 937.585 113.18 947.859 118.7C958.132 124.067 966.182 131.503 972.009 141.01C977.835 150.517 980.749 161.557 980.749 174.13C980.749 186.397 977.835 197.36 972.009 207.02C966.182 216.527 958.132 224.04 947.859 229.56C937.585 235.08 925.932 237.84 912.899 237.84ZM912.899 208.4C918.879 208.4 924.245 207.02 928.999 204.26C933.752 201.5 937.509 197.59 940.269 192.53C943.029 187.317 944.409 181.183 944.409 174.13C944.409 166.923 943.029 160.79 940.269 155.73C937.509 150.67 933.752 146.76 928.999 144C924.245 141.24 918.879 139.86 912.899 139.86C906.919 139.86 901.552 141.24 896.799 144C892.045 146.76 888.212 150.67 885.299 155.73C882.539 160.79 881.159 166.923 881.159 174.13C881.159 181.183 882.539 187.317 885.299 192.53C888.212 197.59 892.045 201.5 896.799 204.26C901.552 207.02 906.919 208.4 912.899 208.4ZM1055.33 237.84C1040.76 237.84 1029.42 234.16 1021.29 226.8C1013.16 219.287 1009.1 208.17 1009.1 193.45V84.89H1044.98V192.99C1044.98 198.203 1046.36 202.267 1049.12 205.18C1051.88 207.94 1055.64 209.32 1060.39 209.32C1066.06 209.32 1070.89 207.787 1074.88 204.72L1084.54 230.02C1080.86 232.627 1076.41 234.62 1071.2 236C1066.14 237.227 1060.85 237.84 1055.33 237.84ZM990.012 142.62V115.02H1075.8V142.62H990.012ZM1250.09 238.76C1237.36 238.76 1225.63 236.767 1214.9 232.78C1204.32 228.64 1195.04 222.813 1187.07 215.3C1179.25 207.787 1173.12 198.97 1168.67 188.85C1164.38 178.73 1162.23 167.613 1162.23 155.5C1162.23 143.387 1164.38 132.27 1168.67 122.15C1173.12 112.03 1179.33 103.213 1187.3 95.7C1195.27 88.1867 1204.63 82.4367 1215.36 78.45C1226.09 74.31 1237.9 72.24 1250.78 72.24C1265.04 72.24 1277.84 74.6167 1289.19 79.37C1300.69 84.1233 1310.35 91.0233 1318.17 100.07L1294.25 122.15C1288.42 116.017 1282.06 111.493 1275.16 108.58C1268.26 105.513 1260.75 103.98 1252.62 103.98C1244.8 103.98 1237.67 105.207 1231.23 107.66C1224.79 110.113 1219.19 113.64 1214.44 118.24C1209.84 122.84 1206.24 128.283 1203.63 134.57C1201.18 140.857 1199.95 147.833 1199.95 155.5C1199.95 163.013 1201.18 169.913 1203.63 176.2C1206.24 182.487 1209.84 188.007 1214.44 192.76C1219.19 197.36 1224.71 200.887 1231 203.34C1237.44 205.793 1244.49 207.02 1252.16 207.02C1259.52 207.02 1266.65 205.87 1273.55 203.57C1280.6 201.117 1287.43 197.053 1294.02 191.38L1315.18 218.29C1306.44 224.883 1296.24 229.943 1284.59 233.47C1273.09 236.997 1261.59 238.76 1250.09 238.76ZM1281.14 213.46V152.97H1315.18V218.29L1281.14 213.46ZM1362.9 282.46C1356.46 282.46 1350.1 281.463 1343.81 279.47C1337.52 277.477 1332.39 274.717 1328.4 271.19L1341.51 245.66C1344.27 248.113 1347.41 250.03 1350.94 251.41C1354.62 252.79 1358.22 253.48 1361.75 253.48C1366.81 253.48 1370.8 252.253 1373.71 249.8C1376.78 247.5 1379.54 243.59 1381.99 238.07L1388.43 222.89L1391.19 218.98L1435.58 112.26H1470.08L1414.19 243.59C1410.2 253.557 1405.6 261.377 1400.39 267.05C1395.33 272.723 1389.66 276.71 1383.37 279.01C1377.24 281.31 1370.41 282.46 1362.9 282.46ZM1384.06 240.83L1328.86 112.26H1365.89L1408.67 215.76L1384.06 240.83ZM1643.19 110.42C1653.01 110.42 1661.67 112.413 1669.18 116.4C1676.85 120.233 1682.83 126.213 1687.12 134.34C1691.57 142.313 1693.79 152.587 1693.79 165.16V236H1657.91V170.68C1657.91 160.713 1655.84 153.353 1651.7 148.6C1647.56 143.847 1641.74 141.47 1634.22 141.47C1629.01 141.47 1624.33 142.697 1620.19 145.15C1616.05 147.45 1612.83 150.977 1610.53 155.73C1608.23 160.483 1607.08 166.54 1607.08 173.9V236H1571.2V170.68C1571.2 160.713 1569.13 153.353 1564.99 148.6C1561.01 143.847 1555.26 141.47 1547.74 141.47C1542.53 141.47 1537.85 142.697 1533.71 145.15C1529.57 147.45 1526.35 150.977 1524.05 155.73C1521.75 160.483 1520.6 166.54 1520.6 173.9V236H1484.72V112.26H1518.99V146.07L1512.55 136.18C1516.85 127.747 1522.9 121.383 1530.72 117.09C1538.7 112.643 1547.74 110.42 1557.86 110.42C1569.21 110.42 1579.1 113.333 1587.53 119.16C1596.12 124.833 1601.79 133.573 1604.55 145.38L1591.9 141.93C1596.04 132.27 1602.64 124.603 1611.68 118.93C1620.88 113.257 1631.39 110.42 1643.19 110.42Z" fill="#0015FF"/>
<path d="M263.648 168.64C264.288 163.84 264.608 158.88 264.608 153.6C264.608 148.48 264.288 143.36 263.488 138.56L295.968 113.28C298.848 111.04 299.648 106.72 297.888 103.52L267.168 50.4C265.248 46.88 261.248 45.76 257.728 46.88L219.488 62.24C211.488 56.16 203.008 51.04 193.568 47.2L187.808 6.56C187.168 2.72 183.968 0 180.128 0H118.688C114.848 0 111.808 2.72 111.168 6.56L105.408 47.2C95.968 51.04 87.328 56.32 79.488 62.24L41.248 46.88C37.728 45.6 33.728 46.88 31.808 50.4L1.24801 103.52C-0.671994 106.88 -0.0319963 111.04 3.168 113.28L35.648 138.56C34.848 143.36 34.208 148.64 34.208 153.6C34.208 158.56 34.528 163.84 35.328 168.64L2.848 193.92C-0.031996 196.16 -0.831994 200.48 0.928006 203.68L31.648 256.8C33.568 260.32 37.568 261.44 41.088 260.32L79.328 244.96C87.328 251.04 95.808 256.16 105.248 260L111.008 300.64C111.808 304.48 114.848 307.2 118.688 307.2H180.128C183.968 307.2 187.168 304.48 187.648 300.64L193.408 260C202.848 256.16 211.488 251.04 219.328 244.96L257.568 260.32C261.088 261.6 265.088 260.32 267.008 256.8L297.728 203.68C299.648 200.16 298.848 196.16 295.808 193.92L263.648 168.64ZM149.408 211.2C117.728 211.2 91.808 185.28 91.808 153.6C91.808 121.92 117.728 96 149.408 96C181.088 96 207.008 121.92 207.008 153.6C207.008 185.28 181.088 211.2 149.408 211.2Z" fill="url(#paint0_linear_5_15)"/>
<defs>
<linearGradient id="paint0_linear_5_15" x1="149.408" y1="0" x2="149.408" y2="307.2" gradientUnits="userSpaceOnUse">
<stop stop-color="#0015FF"/>
<stop offset="1" stop-color="#9E00FF"/>
</linearGradient>
</defs>
</svg>
